<?xml version="1.0" standalone="no"?>
<!DOCTYPE svg PUBLIC "-//W3C//DTD SVG 20010904//EN"
 "http://www.w3.org/TR/2001/REC-SVG-20010904/DTD/svg10.dtd">
<svg version="1.0" xmlns="http://www.w3.org/2000/svg"
 width="1280.000000pt" height="882.000000pt" viewBox="0 0 1280.000000 882.000000"
 preserveAspectRatio="xMidYMid meet">
<metadata>
Created by potrace 1.15, written by Peter Selinger 2001-2017
</metadata>
<g transform="translate(0.000000,882.000000) scale(0.100000,-0.100000)"
fill="#000000" stroke="none">
<path d="M1457 8668 c-4 -83 -7 -207 -7 -275 0 -105 -2 -123 -16 -123 -16 0
-1097 207 -1127 216 -12 4 -58 -34 -162 -132 -80 -76 -142 -141 -138 -144 5
-4 46 -14 93 -23 129 -24 1122 -215 1228 -236 51 -10 96 -21 99 -25 6 -6 -18
-943 -34 -1334 -5 -127 -5 -133 14 -138 19 -5 20 -18 26 -322 4 -209 3 -319
-4 -323 -10 -6 251 -174 339 -218 35 -18 42 -19 42 -6 0 12 13 15 58 15 81 0
625 -20 628 -23 1 -1 15 -86 30 -189 l29 -188 103 0 103 0 -7 48 c-4 26 -17
109 -29 185 l-22 138 85 -3 84 -3 603 -420 602 -420 7 -200 c28 -832 92 -1306
225 -1658 66 -177 119 -270 218 -384 l55 -63 -54 0 c-120 0 -286 -43 -383 -99
-27 -16 -95 -70 -149 -119 l-99 -90 -96 45 c-53 25 -101 47 -108 50 -12 5 -43
-45 -43 -70 0 -8 40 -32 92 -56 l92 -41 -36 -38 c-51 -54 -133 -160 -238 -307
-51 -71 -106 -145 -124 -164 -33 -35 -203 -154 -221 -154 -6 0 -114 65 -240
145 -288 181 -331 207 -428 255 l-79 38 -24 -28 c-36 -42 -31 -62 24 -94 26
-15 162 -104 302 -198 218 -146 296 -191 535 -312 260 -131 779 -381 1095
-528 74 -35 275 -129 445 -210 344 -164 347 -165 473 -130 65 18 139 76 203
157 l33 41 -23 18 c-17 14 -39 19 -80 19 -53 0 -60 -3 -124 -55 -38 -30 -79
-58 -91 -61 -16 -4 -95 29 -276 115 -139 67 -257 121 -262 121 -20 0 3 18 29
23 47 9 175 100 243 173 36 38 115 144 177 234 61 91 129 182 151 204 l40 38
99 -45 c54 -25 146 -68 206 -96 l107 -50 21 40 c11 23 19 42 17 44 -2 2 -84
40 -183 85 -99 46 -184 86 -188 90 -7 6 76 84 173 162 103 82 197 108 399 108
l134 0 176 -60 c97 -33 234 -74 305 -93 l128 -33 59 -139 c33 -76 58 -139 56
-141 -1 -2 -44 23 -93 55 -137 88 -312 191 -379 222 l-60 29 -22 -23 c-46 -45
-36 -65 57 -122 47 -28 159 -103 250 -165 91 -61 199 -133 240 -157 138 -84
696 -359 1476 -726 192 -91 426 -201 520 -246 102 -48 185 -81 203 -81 18 0
64 7 102 16 57 13 81 25 130 65 65 55 114 121 106 143 -7 18 -99 40 -128 31
-12 -4 -52 -32 -88 -61 -41 -34 -74 -54 -90 -54 -15 0 -125 47 -246 105 l-220
106 -76 102 c-49 65 -105 158 -153 256 -43 84 -76 155 -74 156 2 2 36 -12 76
-30 l72 -34 21 41 c11 22 19 41 17 43 -2 2 -59 29 -128 60 -69 31 -130 62
-137 68 -6 7 -40 59 -75 117 -36 58 -88 138 -116 178 -29 39 -52 74 -52 77 0
3 16 5 36 5 52 0 218 35 310 66 205 68 331 167 403 315 51 107 81 216 81 297
0 84 -40 224 -95 331 -49 95 -57 129 -120 521 -59 369 -108 594 -161 740 -93
259 -199 406 -337 470 -84 39 -310 97 -432 110 -55 7 -104 14 -109 17 -5 4 -6
66 -3 152 4 81 2 177 -3 215 -33 224 -189 344 -520 400 l-36 6 -11 123 c-7 67
-21 152 -32 187 -12 36 -21 66 -21 66 0 1 21 7 46 13 66 17 121 47 126 69 14
53 -59 130 -192 203 -45 24 -96 54 -113 66 -49 34 -88 50 -169 68 -174 40
-303 81 -301 96 27 222 138 977 144 983 5 6 17 5 31 -2 13 -6 178 -41 368 -77
342 -65 900 -173 1450 -279 157 -30 474 -91 705 -136 231 -45 548 -106 705
-136 157 -30 470 -91 695 -134 226 -43 561 -108 745 -144 184 -35 561 -108
838 -161 l503 -97 57 53 c119 110 232 222 228 226 -2 2 -96 22 -210 43 -114
22 -453 87 -754 145 -301 58 -734 142 -962 186 -228 44 -543 105 -700 135
-157 30 -469 91 -695 134 -225 43 -538 104 -695 134 -157 30 -530 102 -830
160 -300 58 -682 132 -850 164 l-305 59 -35 -33 c-23 -22 -46 -34 -63 -34 -26
0 -27 1 -20 43 13 80 11 91 -28 109 -57 28 -183 41 -274 29 -102 -15 -149 -37
-153 -73 -3 -24 -8 -28 -35 -28 -32 1 -32 1 42 69 l74 69 -54 11 c-30 6 -183
35 -341 66 -159 30 -415 80 -570 110 -156 29 -471 90 -700 135 -230 44 -606
116 -835 160 -230 45 -546 106 -703 136 -157 30 -393 76 -525 101 -190 36
-243 49 -254 64 -11 16 -27 19 -100 20 -59 0 -162 15 -331 48 l-245 47 -5 273
-5 274 -80 23 c-44 13 -83 24 -86 24 -3 0 -9 -68 -12 -152z m418 -823 c294
-55 282 -51 289 -88 3 -18 35 -223 71 -457 36 -234 67 -435 70 -447 3 -14 13
-23 24 -23 15 0 20 -10 25 -45 13 -85 12 -86 -132 -83 l-127 3 -17 54 c-20 62
-49 98 -95 117 -39 17 -114 17 -168 0 -34 -11 -48 -10 -97 7 l-58 19 0 141 c0
78 -3 301 -7 496 -6 345 -6 353 13 348 10 -3 105 -22 209 -42z m805 -155 c146
-28 391 -75 545 -105 154 -30 469 -90 700 -135 231 -45 548 -106 705 -136 157
-30 470 -91 695 -134 226 -43 470 -91 543 -105 l133 -26 52 45 c52 44 53 44
101 35 27 -5 51 -11 54 -13 2 -3 -1 -36 -7 -75 -6 -38 -11 -74 -11 -79 0 -10
120 -52 150 -52 11 0 20 -3 20 -7 -2 -34 -138 -964 -141 -968 -3 -2 -52 4
-109 14 -222 40 -490 63 -652 57 -84 -3 -179 -8 -210 -12 l-57 -6 -5 34 c-6
37 -36 401 -36 435 0 18 -23 34 -135 91 l-135 68 0 -201 c0 -111 -3 -243 -6
-292 l-7 -91 -61 -6 c-96 -11 -136 -25 -208 -72 -93 -62 -167 -146 -222 -253
-26 -50 -51 -91 -56 -91 -5 0 -319 154 -697 341 -378 188 -770 381 -871 430
-100 49 -185 96 -188 104 -4 8 -19 15 -34 15 -36 0 -43 20 -42 120 0 49 -7 95
-19 133 -25 74 -24 77 11 77 19 0 30 5 30 14 0 13 -123 817 -135 880 -4 25 -3
28 18 23 12 -3 141 -29 287 -57z m-313 -1081 c7 -17 11 -34 9 -36 -4 -4 -146
64 -146 70 0 1 28 1 62 0 59 -1 62 -2 75 -34z m-277 -499 c379 -263 370 -257
370 -281 0 -19 -8 -19 -337 -17 l-337 3 -28 235 c-35 306 -35 291 0 281 15 -5
164 -104 332 -221z m3055 -3981 c206 -98 403 -197 439 -220 36 -22 114 -60
172 -84 l107 -43 -54 -7 c-71 -10 -161 -40 -232 -78 -55 -29 -186 -136 -250
-205 l-29 -30 -96 45 c-54 25 -340 158 -637 295 -297 137 -543 252 -547 255
-11 6 124 125 196 173 100 68 212 89 444 82 l114 -4 373 -179z m-588 -425
c340 -158 631 -293 646 -301 l28 -14 -48 -53 c-26 -29 -88 -108 -138 -175
-221 -303 -200 -279 -327 -363 l-117 -78 -641 302 -641 301 51 28 c136 74 195
137 360 379 90 132 192 260 207 260 1 0 280 -129 620 -286z m2438 -259 c95
-15 121 -26 600 -246 360 -166 507 -239 525 -259 14 -16 61 -98 105 -181 44
-84 101 -188 127 -232 26 -43 42 -77 35 -74 -22 10 -1089 513 -1227 579 l-135
65 -32 59 c-17 32 -56 117 -87 187 -51 119 -53 129 -33 124 12 -3 67 -13 122
-22z m831 -75 c22 -10 56 -37 76 -61 38 -48 131 -199 126 -205 -4 -3 -628 283
-637 292 -2 2 85 1 195 -2 157 -5 208 -10 240 -24z"/>
</g>
</svg>
